<svg xmlns="http://www.w3.org/2000/svg" width="460" height="96" viewBox="0 0 460 96" role="img" aria-label="Exam Maker">
  <defs>
    <linearGradient id="g" x1="0" y1="0" x2="0" y2="1">
      <stop offset="0" stop-color="#f5e4b3"/>
      <stop offset="0.5" stop-color="#e8c676"/>
      <stop offset="1" stop-color="#daa945"/>
    </linearGradient>
  </defs>
  <style>
    .word { fill: #1c1917; }
    .tag { fill: #b58c1c; }
    @media (prefers-color-scheme: dark) {
      .word { fill: #f5f5f4; }
      .tag { fill: #e8c676; }
    }
  </style>
  <rect x="4" y="4" width="88" height="88" rx="24" fill="url(#g)"/>
  <g transform="translate(18 18) scale(2.5)" fill="none" stroke="#1c1917" stroke-width="2" stroke-linecap="round" stroke-linejoin="round">
    <path d="M21.42 10.922a1 1 0 0 0-.019-1.838L12.83 5.18a2 2 0 0 0-1.66 0L2.6 9.08a1 1 0 0 0 0 1.832l8.57 3.908a2 2 0 0 0 1.66 0z"/>
    <path d="M22 10v6"/>
    <path d="M6 12.5V16a6 3 0 0 0 12 0v-3.5"/>
  </g>
  <text x="112" y="52" font-family="Outfit, 'Segoe UI', Helvetica, Arial, sans-serif" font-size="38" font-weight="800" class="word">Exam Maker</text>
  <text x="114" y="78" font-family="Outfit, 'Segoe UI', Helvetica, Arial, sans-serif" font-size="13.5" font-weight="700" letter-spacing="3" class="tag">AI INTERVIEW ASSESSMENT</text>
</svg>
